<svg version="1.2" xmlns="http://www.w3.org/2000/svg" viewBox="0 0 108 108" width="108" height="108">
	<title>file (3)</title>
	<style>
		.s0 { fill: #c6b378 } 
	</style>
	<path class="s0" d="m57.7 108.4q-3.4 0-6.9 0c-0.2-0.1-0.4-0.2-0.6-0.2q-2.6-0.4-5-1.6c-1.3-0.7-2.6-1.4-3.9-2.2q-2-1.1-3.9-2.2-2-1.1-3.9-2.3-1.9-1.1-3.9-2.2-2.1-1.3-4.2-2.5-2.2-1.3-4.5-2.6c-1.6-0.9-3.2-1.9-4.8-2.8-2.3-1.3-4.5-2.9-6.3-5q-1.8-2-3.1-4.4-1-2.1-1.6-4.3c-0.4-1.5-0.7-3.2-0.7-4.8q0-17.2 0-34.5 0-0.9 0.2-1.9 0.3-1.5 0.7-3c0.4-1.7 1.1-3.3 2-4.9q1.2-1.8 2.6-3.5c1.1-1.1 2.2-2.2 3.5-3.1 1.8-1.1 3.6-2.2 5.4-3.3 1.2-0.7 2.4-1.3 3.5-2q2-1.1 4.1-2.3 1.8-1.1 3.6-2.1 2.3-1.3 4.6-2.7 2-1.1 4.1-2.3c1.7-1 3.4-2 5.1-3 2.4-1.3 5-2.2 7.7-2.5 0.1 0 0.1-0.1 0.2-0.1q2.5 0 5.1 0 0.1 0.1 0.2 0.1c0.7 0.2 1.5 0.2 2.2 0.4 2.7 0.6 5.1 1.8 7.4 3.2q2.5 1.5 5 2.9 2.1 1.2 4.2 2.4 3.1 1.8 6.2 3.6 2.9 1.6 5.8 3.3 2.8 1.7 5.7 3.3 2.1 1.3 3.9 3c0.7 0.6 1.3 1.3 1.8 2 0.8 1 1.6 2.1 2.2 3.2 1 1.7 1.8 3.6 2.1 5.6 0.3 1.3 0.6 2.6 0.6 3.9q0 16.9 0 33.7c0 1.3-0.2 2.5-0.4 3.8-0.2 2-0.9 3.9-1.8 5.8q-1.3 2.5-3.2 4.6c-1.1 1.3-2.2 2.4-3.6 3.3-1.8 1.1-3.6 2.2-5.5 3.3q-2.8 1.6-5.6 3.3-2.9 1.6-5.7 3.2-3.3 1.9-6.6 3.8-3.4 2-6.8 4-3.3 1.8-7 2.5c-0.1 0-0.1 0.1-0.2 0.1zm-31.3-22.4q0.6 0.4 1.2 0.7 2.2 1.3 4.5 2.6 1.7 1 3.4 2 2.2 1.3 4.5 2.6 2 1.2 4 2.3c1.6 0.9 3.2 1.9 4.9 2.7 1.5 0.8 3.2 1 4.9 1.1q0.8 0 1.6-0.1 1-0.1 2.1-0.3c1.8-0.3 3.3-1.2 4.9-2.1q2.5-1.5 5-2.9 2.2-1.3 4.5-2.6 2.8-1.7 5.6-3.3 2.5-1.4 5-2.9c1.9-1.1 3.8-2.2 5.7-3.3 1.8-1 3.3-2.2 4.6-3.8 1.9-2.5 2.9-5.4 2.9-8.6q0-16.3 0-32.6c0-0.7-0.2-1.5-0.3-2.2-0.3-1.4-0.8-2.8-1.6-4-0.7-1-1.4-1.9-2.2-2.8-1-1.1-2.3-1.9-3.6-2.6-1.9-1.1-3.8-2.2-5.7-3.3q-1.8-1-3.5-2-2-1.2-3.9-2.3-1.7-1-3.5-2-2-1.1-4-2.3-1.7-1-3.4-2c-1.5-0.8-3-1.6-4.5-2.4-1.3-0.6-2.7-0.9-4.1-1-1.1-0.1-2.2 0.1-3.4 0.2-1.3 0.1-2.5 0.5-3.6 1.1-1.1 0.5-2.1 1.1-3.1 1.7q-1.8 1-3.5 2-2.2 1.3-4.5 2.6-2 1.1-4 2.3-1.9 1.1-3.9 2.3-2 1.1-4 2.2c-1.7 1-3.3 2-5 3-1.4 0.8-2.8 1.7-3.9 2.9q-1.6 1.8-2.6 4-1.1 2.6-1.1 5.4 0 16.3 0 32.6c0 0.7 0.2 1.4 0.3 2.1 0.5 2.4 1.6 4.6 3.3 6.5 1 1.1 2.2 2 3.5 2.8q1.7 1 3.5 2c1 0.6 2 1.1 3 1.7z"/>
	<path class="s0" d="m55.3 90.4q-0.6 0.1-1.1 0.1-0.4 0-0.9-0.1-0.1-0.2-0.2-0.3 0 0-0.1 0.1 0.1 0.1 0.2 0.2-0.3 0-0.7-0.1-0.1-0.2-0.1-0.3-0.1 0.1-0.1 0.1 0.1 0.1 0.1 0.2-0.2 0-0.4 0c-0.1-0.2-0.2-0.4-0.4-0.4-0.5-0.2-1.1-0.3-1.7-0.6q-2.7-1.4-5.3-2.9c-1.4-0.8-2.8-1.6-4.2-2.4q-2.4-1.4-4.8-2.7-2.1-1.2-4.2-2.5-2.7-1.6-5.5-3.2c-0.3-0.1-0.5-0.2-0.8-0.3q-0.1 0-0.1-0.1c0-0.4-0.2-0.4-0.4-0.4-1.7-1.5-2.7-3.4-3.3-5.5q-0.3-1.5-0.3-3.1c0-8.3 0-16.5 0-24.8 0-2.1 0.6-4 1.7-5.8 1.3-1.9 2.9-3.3 5-4.4 1.6-0.9 3.2-1.8 4.7-2.8q2.4-1.3 4.7-2.6 2.7-1.6 5.4-3.1 2.4-1.4 4.8-2.8 1.4-0.7 2.8-1.4c1.2-0.5 2.4-0.7 3.7-0.8 1.5 0 3 0.2 4.5 0.7 0.9 0.4 1.9 0.9 2.8 1.4 1.2 0.7 2.4 1.4 3.7 2.1q2.1 1.2 4.2 2.5 1.8 1 3.6 2 2.1 1.2 4.2 2.4 1.8 1.1 3.6 2.1c1.2 0.7 2.5 1.4 3.5 2.4 1.7 1.7 2.9 3.7 3.3 6q0.3 1.1 0.3 2.3 0 12.5 0 25 0 2.3-0.9 4.4c-0.5 1.1-1.1 2.1-1.9 2.9q-0.1 0-0.2-0.1 0 0 0 0.1 0.1 0 0.2 0.1-0.4 0.5-0.9 1c-0.2-0.1-0.3-0.1-0.4-0.2 0 0.2 0 0.3 0 0.5q0 0-0.1 0.1c-0.2 0-0.3-0.1-0.5-0.2 0.1 0.2 0.1 0.3 0.2 0.4 0 0 0 0-0.1 0-0.2 0-0.4 0-0.6 0.1-1 0.6-2 1.2-3 1.8q-2.1 1.2-4.3 2.4-2.1 1.2-4.2 2.4-1.6 1-3.2 1.9-1.2 0.6-2.3 1.3-1.6 0.9-3.1 1.8c-0.9 0.5-1.8 1-2.8 1.5-0.6 0.3-1.3 0.6-2 0.9-0.2 0-0.4 0.1-0.1 0.4q-0.2 0-0.4 0c0-0.3-0.2-0.3-0.4-0.2 0 0 0 0.2 0 0.4q-0.2 0-0.4 0-0.1-0.2-0.1-0.3-0.1 0.1-0.1 0.1 0 0.1 0.1 0.2-0.3 0.1-0.6 0.1-0.1-0.2-0.2-0.3 0 0-0.1 0.1 0.1 0.1 0.2 0.2zm-13-23.7q12.2 0 24.3 0 0-12.5 0-24.8-12.4 0-24.8 0 0 12.4 0 24.7c0.2 0.1 0.3 0.1 0.5 0.1z"/>
	<path class="s0" d="m57.3 90.1c-0.3-0.3-0.1-0.4 0.1-0.4 0.7-0.3 1.4-0.6 2-0.9 1-0.5 1.9-1 2.8-1.5q1.5-0.9 3.1-1.8 1.1-0.7 2.3-1.3 1.6-0.9 3.2-1.9 2.1-1.2 4.2-2.4 2.2-1.2 4.3-2.4c1-0.6 2-1.2 3-1.8 0.2-0.1 0.4-0.1 0.6-0.1q-0.9 0.7-1.9 1.3-2.1 1.2-4.2 2.5-1.8 1-3.6 2-2.2 1.2-4.3 2.5-1.8 1-3.6 2-2.1 1.2-4.2 2.5c-1.2 0.6-2.4 1.4-3.8 1.7z"/>
	<path class="s0" d="m25.1 75.3c0.3 0.1 0.5 0.2 0.8 0.3q2.8 1.6 5.5 3.2 2.1 1.3 4.2 2.5 2.4 1.3 4.8 2.7c1.4 0.8 2.8 1.6 4.2 2.4q2.6 1.5 5.3 2.9c0.6 0.3 1.2 0.4 1.7 0.6 0.2 0 0.3 0.2 0.4 0.3-1.2-0.1-2.4-0.6-3.4-1.2q-1.8-1-3.6-2.1-2.2-1.2-4.3-2.4-1.8-1.1-3.6-2.1-2.1-1.2-4.3-2.4-1.7-1-3.5-2.1-2-1.1-3.9-2.3-0.2-0.1-0.3-0.3z"/>
	<path class="s0" d="m56.5 90.3c0-0.2 0-0.4 0-0.4 0.2-0.1 0.4-0.1 0.4 0.2q-0.1 0.1-0.4 0.2z"/>
	<path class="s0" d="m83.4 75.2c0-0.1 0-0.2 0-0.4 0.1 0.1 0.2 0.1 0.3 0.2q-0.1 0.1-0.3 0.2z"/>
	<path class="s0" d="m83 75.6c-0.1-0.1-0.1-0.2-0.2-0.4 0.2 0.1 0.3 0.2 0.4 0.2q0 0.1-0.2 0.2z"/>
	<path class="s0" d="m24.6 74.9c0.2-0.1 0.4-0.1 0.4 0.2q-0.2-0.1-0.4-0.2z"/>
	<path class="s0" d="m56 90.3q-0.1-0.1-0.1-0.2 0 0 0.1-0.1 0 0.1 0.1 0.3 0 0-0.1 0z"/>
	<path class="s0" d="m55.3 90.4q-0.1-0.1-0.2-0.2 0.1-0.1 0.1-0.1 0.1 0.1 0.1 0.3 0 0 0 0z"/>
	<path class="s0" d="m52.4 90.3q-0.1-0.1-0.1-0.2 0 0 0.1-0.1 0 0.2 0.1 0.3 0 0-0.1 0z"/>
	<path class="s0" d="m53.2 90.4q-0.1-0.1-0.2-0.2 0.1-0.1 0.1-0.1 0.1 0.1 0.1 0.3 0 0 0 0z"/>
	<path class="s0" d="m84.7 74q-0.1-0.1-0.2-0.1 0-0.1 0-0.1 0.1 0.1 0.2 0.2 0 0 0 0z"/>
</svg>